<svg xmlns="http://www.w3.org/2000/svg" viewBox="0 0 18.61 22.99">
  <title>形象網站_首頁v6(O)</title>
  <g id="登入">
    <g>
      <path d="M18.6,11.05A1.92,1.92,0,0,0,17.26,9.2a7.76,7.76,0,0,0-1-.25V8.67c0-1.18,0-2.37-.1-3.54-.28-2.31-2.43-4.34-5-4.91C10.7.13,10.26.07,9.83,0H8.78L8.63,0A7.39,7.39,0,0,0,4.47,1.68,5.39,5.39,0,0,0,2.36,5.61c-.06,1,0,2.07,0,3.1V9a4,4,0,0,0-.53.07,2.06,2.06,0,0,0-1.79,2v9.85A2.18,2.18,0,0,0,2.41,23Q9.3,23,16.2,23a3,3,0,0,0,1.08-.2,1.93,1.93,0,0,0,1.32-1.9v-8C18.6,12.24,18.61,11.64,18.6,11.05ZM4.65,6.71c0-.37,0-.75.06-1.12l0-.22A2.25,2.25,0,0,1,4.8,5c0-.1.06-.2.1-.3A2,2,0,0,1,5,4.49,4.67,4.67,0,0,1,5.25,4l.22-.3.13-.14A4.5,4.5,0,0,1,7,2.52l.37-.17.39-.13.41-.1.41-.07L8.8,2h.64A5.2,5.2,0,0,1,12.51,3.1a3.92,3.92,0,0,1,.69.72,2.7,2.7,0,0,1,.22.33,3.72,3.72,0,0,1,.19.34c.05.12.1.24.14.37a1.87,1.87,0,0,1,.07.22c0,.11,0,.22.07.33v0a3.81,3.81,0,0,1,0,.59V9H4.69s0,0,0,0V8.51h0c0-.52,0-1,0-1.57ZM16.26,21H2.65c-.26,0-.33-.06-.33-.29,0-3.15,0-6.3,0-9.45V11H16.26Z" style="fill: #47b1ff"/>
      <path d="M8.15,17.45a.06.06,0,0,1,0-.06,1,1,0,0,0-.46-1,1.67,1.67,0,0,1-.5-2.21A2.35,2.35,0,0,1,9.51,13a2.22,2.22,0,0,1,2.05,1.51,1.84,1.84,0,0,1-.93,2.09.28.28,0,0,0-.17.29c0,.35,0,.7,0,1.06a1.07,1.07,0,0,1-1.15,1,1.07,1.07,0,0,1-1.16-1C8.14,17.8,8.15,17.63,8.15,17.45Z" style="fill: #47b1ff"/>
    </g>
  </g>
</svg>
