<svg xmlns="http://www.w3.org/2000/svg" viewBox="0 0 19.5 17.97">
  <title>形象網站_首頁v6(O)</title>
  <g id="登入">
    <path d="M2.16,18a5.2,5.2,0,0,1,.17-.68A5.85,5.85,0,0,1,4,14.78a8.64,8.64,0,0,1,2.5-1.59,8.49,8.49,0,0,1,1.79-.57,9.43,9.43,0,0,1,1.51-.17h.4l.59,0a9.22,9.22,0,0,1,1.17.2,8,8,0,0,1,2,.82A7.11,7.11,0,0,1,15.87,15,6.18,6.18,0,0,1,17,16.6a5.12,5.12,0,0,1,.4,1.37H19.5a3.42,3.42,0,0,0,0-.45,4.59,4.59,0,0,0-.19-1,6.42,6.42,0,0,0-.71-1.61,8.84,8.84,0,0,0-1.12-1.46l-.39-.37a7.34,7.34,0,0,0-.6-.51,11.07,11.07,0,0,0-1.13-.75,9.8,9.8,0,0,0-1.53-.74l-.48-.18a6,6,0,0,0,2.58-4.68.5.5,0,0,1,0-.21.16.16,0,0,1,0-.1,4.06,4.06,0,0,0-.06-.85A5.89,5.89,0,0,0,14.34,2a5.27,5.27,0,0,0-1-.86A6.34,6.34,0,0,0,11.63.25,6.58,6.58,0,0,0,10,0L9.6,0A3.43,3.43,0,0,0,9,.07,6.06,6.06,0,0,0,7.71.42,5.75,5.75,0,0,0,5.9,1.55,6.08,6.08,0,0,0,4.4,3.66a6.21,6.21,0,0,0-.46,2,5.48,5.48,0,0,0,0,.81,6.76,6.76,0,0,0,.18,1.08A6,6,0,0,0,5.66,10.2a6.35,6.35,0,0,0,.73.63l-.09,0a11.7,11.7,0,0,0-2,.9,9.64,9.64,0,0,0-2.1,1.6A8.18,8.18,0,0,0,.92,14.94,6.48,6.48,0,0,0,0,17.56L0,18Zm4-10.21a4.86,4.86,0,0,1-.28-1c0-.14,0-.28,0-.41a.14.14,0,0,1,0-.06,1.41,1.41,0,0,1,0-.41,3.71,3.71,0,0,1,.45-1.66A4.06,4.06,0,0,1,8.18,2.46,4,4,0,0,1,9.41,2.1a5,5,0,0,1,.67,0,4.1,4.1,0,0,1,3.24,1.79,4,4,0,0,1,.6,1.37,3.28,3.28,0,0,1,.1.7,1.14,1.14,0,0,1,0,.45,4.28,4.28,0,0,1-.35,1.46,4.14,4.14,0,0,1-1,1.41,4,4,0,0,1-1.74.91,3.74,3.74,0,0,1-1.29.1,3.79,3.79,0,0,1-1.32-.34,4.15,4.15,0,0,1-1.38-1A3.82,3.82,0,0,1,6.16,7.76Z" style="fill: #47b1ff"/>
  </g>
</svg>
